<?xml version="1.0" encoding="utf-8"?>
<svg version="1.1" xmlns:xlink="http://www.w3.org/1999/xlink" width="19px" height="27px" xmlns="http://www.w3.org/2000/svg">
  <g transform="matrix(1 0 0 1 -1162 -17 )">
    <path d="M 10.8977864583333 25.491796875  C 11.2853732638889 25.161328125  11.4791666666667 24.7640625  11.4791666666667 24.3  C 11.4791666666667 23.8359375  11.2853732638889 23.438671875  10.8977864583333 23.108203125  C 10.5101996527778 22.777734375  10.0442708333333 22.6125  9.5 22.6125  C 8.95572916666674 22.6125  8.48980034722217 22.777734375  8.10221354166674 23.108203125  C 7.71462673611109 23.438671875  7.52083333333326 23.8359375  7.52083333333326 24.3  C 7.52083333333326 24.7640625  7.71462673611109 25.161328125  8.10221354166674 25.491796875  C 8.48980034722217 25.822265625  8.95572916666674 25.9875  9.5 25.9875  C 10.0442708333333 25.9875  10.5101996527778 25.822265625  10.8977864583333 25.491796875  Z M 16.3899739583333 21.399609375  C 16.5466579861111 21.266015625  16.625 21.1078125  16.625 20.925  L 16.625 6.075  C 16.625 5.8921875  16.5466579861111 5.733984375  16.3899739583333 5.600390625  C 16.2332899305557 5.466796875  16.0477430555557 5.4  15.8333333333333 5.4  L 3.16666666666674 5.4  C 2.95225694444434 5.4  2.76671006944434 5.466796875  2.61002604166674 5.600390625  C 2.45334201388891 5.733984375  2.375 5.8921875  2.375 6.075  L 2.375 20.925  C 2.375 21.1078125  2.45334201388891 21.266015625  2.61002604166674 21.399609375  C 2.76671006944434 21.533203125  2.95225694444434 21.6  3.16666666666674 21.6  L 15.8333333333333 21.6  C 16.0477430555557 21.6  16.2332899305557 21.533203125  16.3899739583333 21.399609375  Z M 11.4791666666667 3.375  C 11.7430555555557 3.375  11.875 3.2625  11.875 3.0375  C 11.875 2.8125  11.7430555555557 2.7  11.4791666666667 2.7  L 7.52083333333326 2.7  C 7.25694444444434 2.7  7.125 2.8125  7.125 3.0375  C 7.125 3.2625  7.25694444444434 3.375  7.52083333333326 3.375  L 11.4791666666667 3.375  Z M 18.0598958333333 0.801562499999999  C 18.6866319444443 1.3359375  19 1.96875  19 2.7  L 19 24.3  C 19 25.03125  18.6866319444443 25.6640625  18.0598958333333 26.1984375  C 17.4331597222222 26.7328125  16.6909722222222 27  15.8333333333333 27  L 3.16666666666674 27  C 2.30902777777783 27  1.56684027777783 26.7328125  0.940104166666742 26.1984375  C 0.313368055555657 25.6640625  0 25.03125  0 24.3  L 0 2.7  C 0 1.96875  0.313368055555657 1.3359375  0.940104166666742 0.801562499999999  C 1.56684027777783 0.267187499999999  2.30902777777783 0  3.16666666666674 0  L 15.8333333333333 0  C 16.6909722222222 0  17.4331597222222 0.267187499999999  18.0598958333333 0.801562499999999  Z " fill-rule="nonzero" fill="#999999" stroke="none" transform="matrix(1 0 0 1 1162 17 )" />
  </g>
</svg>