<?xml version="1.0" encoding="utf-8"?>
<svg version="1.1" xmlns:xlink="http://www.w3.org/1999/xlink" width="111px" height="101px" xmlns="http://www.w3.org/2000/svg">
  <g transform="matrix(1 0 0 1 -658 -247 )">
    <path d="M 658 247  L 769 247  L 769 348  L 658 348  L 658 247  " fill-rule="nonzero" fill="#cccccc" stroke="none" />
    <path d="M 665 254  L 762 254  L 762 341  L 665 341  L 665 254  " fill-rule="nonzero" fill="#ffffff" stroke="none" />
    <path d="M 723.295 277.3  C 719.053 277.3  715.72 273.967  715.72 269.725  C 715.72 265.483  719.053 262.15  723.295 262.15  C 727.537 262.15  730.87 265.483  730.87 269.725  C 730.87 273.967  727.537 277.3  723.295 277.3  " fill-rule="nonzero" fill="#cccccc" stroke="none" />
    <path d="M 668 339  L 668 293.9  L 691 273.4  L 723.2 294.232432432432  L 741.6 285.7  L 760 294.232432432432  L 760 339  L 668 339  " fill-rule="nonzero" fill="#169bd5" stroke="none" />
  </g>
</svg>