<?xml version="1.0" encoding="utf-8"?>
<svg version="1.1" xmlns:xlink="http://www.w3.org/1999/xlink" width="20px" height="21px" xmlns="http://www.w3.org/2000/svg">
  <g transform="matrix(1 0 0 1 -928 -448 )">
    <path d="M 12.265625 12.87890625  C 13.3193108974359 11.7725360576923  13.8461538461538 10.4411057692308  13.8461538461538 8.88461538461539  C 13.8461538461538 7.328125  13.3193108974359 5.99669471153846  12.265625 4.89032451923077  C 11.2119391025641 3.78395432692308  9.94391025641026 3.23076923076923  8.46153846153846 3.23076923076923  C 6.97916666666667 3.23076923076923  5.71113782051282 3.78395432692308  4.65745192307692 4.89032451923077  C 3.60376602564103 5.99669471153846  3.07692307692308 7.328125  3.07692307692308 8.88461538461539  C 3.07692307692308 10.4411057692308  3.60376602564103 11.7725360576923  4.65745192307692 12.87890625  C 5.71113782051282 13.9852764423077  6.97916666666667 14.5384615384615  8.46153846153846 14.5384615384615  C 9.94391025641026 14.5384615384615  11.2119391025641 13.9852764423077  12.265625 12.87890625  Z M 19.5552884615385 18.2487980769231  C 19.8517628205128 18.5600961538462  20 18.9387019230769  20 19.3846153846154  C 20 19.8221153846154  19.8477564102564 20.2007211538462  19.5432692307692 20.5204326923077  C 19.2387820512821 20.8401442307692  18.8782051282051 21  18.4615384615385 21  C 18.0288461538462 21  17.6682692307692 20.8401442307692  17.3798076923077 20.5204326923077  L 13.2572115384615 16.2043269230769  C 11.8229166666667 17.2475961538462  10.224358974359 17.7692307692308  8.46153846153846 17.7692307692308  C 7.31570512820513 17.7692307692308  6.21995192307692 17.5357572115385  5.17427884615385 17.0688100961538  C 4.12860576923077 16.6018629807692  3.22716346153846 15.9708533653846  2.46995192307692 15.17578125  C 1.71274038461538 14.3807091346154  1.11177884615385 13.4341947115385  0.667067307692308 12.3362379807692  C 0.222355769230769 11.23828125  0 10.0877403846154  0 8.88461538461539  C 0 7.68149038461538  0.222355769230769 6.53094951923077  0.667067307692308 5.43299278846154  C 1.11177884615385 4.33503605769231  1.71274038461538 3.38852163461539  2.46995192307692 2.59344951923077  C 3.22716346153846 1.79837740384615  4.12860576923077 1.16736778846154  5.17427884615385 0.700420673076924  C 6.21995192307692 0.233473557692307  7.31570512820513 0  8.46153846153846 0  C 9.6073717948718 0  10.703125 0.233473557692307  11.7487980769231 0.700420673076924  C 12.7944711538462 1.16736778846154  13.6959134615385 1.79837740384615  14.453125 2.59344951923077  C 15.2103365384615 3.38852163461539  15.8112980769231 4.33503605769231  16.2560096153846 5.43299278846154  C 16.7007211538462 6.53094951923077  16.9230769230769 7.68149038461538  16.9230769230769 8.88461538461539  C 16.9230769230769 10.7355769230769  16.4262820512821 12.4140625  15.4326923076923 13.9200721153846  L 19.5552884615385 18.2487980769231  Z " fill-rule="nonzero" fill="#199ed8" stroke="none" transform="matrix(1 0 0 1 928 448 )" />
  </g>
</svg>